HIERARCHY
ROOT Hips
{
  OFFSET 56.9949 92.8172 9.10741
  CHANNELS 6 Xposition Yposition Zposition Zrotation Xrotation Yrotation
  JOINT spine
  {
    OFFSET 0 7.80059 0.448573
    CHANNELS 3 Zrotation Xrotation Yrotation
    JOINT spine1
    {
      OFFSET 0 10.1364 0
      CHANNELS 3 Zrotation Xrotation Yrotation
      JOINT spine2
      {
        OFFSET 0 9.71251 0
        CHANNELS 3 Zrotation Xrotation Yrotation
        JOINT Neck
        {
          OFFSET 0 24.9361 1.18887
          CHANNELS 3 Zrotation Xrotation Yrotation
          JOINT Head
          {
            OFFSET 0 7.53384 0
            CHANNELS 3 Zrotation Xrotation Yrotation
            End Site
            {
              OFFSET 0 18.2361 -6.01402
            }
          }
        }
        JOINT RightShoulder
        {
          OFFSET -4.08965 10.4888 -0.569457
          CHANNELS 3 Zrotation Xrotation Yrotation
          JOINT RightArm
          {
            OFFSET 0 13.757 0
            CHANNELS 3 Zrotation Xrotation Yrotation
            JOINT RightArmRoll
            {
              OFFSET 0 6.94478 0
              CHANNELS 3 Zrotation Xrotation Yrotation
              JOINT RightForeArm
              {
                OFFSET 0 20.2277 0
                CHANNELS 3 Zrotation Xrotation Yrotation
                JOINT RightForeArmRoll
                {
                  OFFSET 0 7.79312 0
                  CHANNELS 3 Zrotation Xrotation Yrotation
                  JOINT RightHand
                  {
                    OFFSET 0 15.6391 0
                    CHANNELS 3 Zrotation Xrotation Yrotation
                    End Site
                    {
                      OFFSET 0 0 0
                    }
                  }
                }
              }
            }
          }
        }
        JOINT LeftShoulder
        {
          OFFSET 4.08965 10.4888 -0.569457
          CHANNELS 3 Zrotation Xrotation Yrotation
          JOINT LeftArm
          {
            OFFSET 0 13.757 0
            CHANNELS 3 Zrotation Xrotation Yrotation
            JOINT LeftArmRoll
            {
              OFFSET 0 6.94478 0
              CHANNELS 3 Zrotation Xrotation Yrotation
              JOINT LeftForeArm
              {
                OFFSET 0 20.2277 0
                CHANNELS 3 Zrotation Xrotation Yrotation
                JOINT LeftForeArmRoll
                {
                  OFFSET 0 7.79312 0
                  CHANNELS 3 Zrotation Xrotation Yrotation
                  JOINT LeftHand
                  {
                    OFFSET 0 15.6391 0
                    CHANNELS 3 Zrotation Xrotation Yrotation
                    End Site
                    {
                      OFFSET 0 0 0
                    }
                  }
                }
              }
            }
          }
        }
      }
    }
  }
  JOINT RightUpLeg
  {
    OFFSET -6.91416 -1.26788 -1.06358
    CHANNELS 3 Zrotation Xrotation Yrotation
    JOINT RightUpLegRoll
    {
      OFFSET 0 18.3378 0
      CHANNELS 3 Zrotation Xrotation Yrotation
      JOINT RightLeg
      {
        OFFSET 0 -22.7085 0
        CHANNELS 3 Zrotation Xrotation Yrotation
        JOINT RightLegRoll
        {
          OFFSET 0 22.7828 0
          CHANNELS 3 Zrotation Xrotation Yrotation
          JOINT RightFoot
          {
            OFFSET 0 18.9629 0
            CHANNELS 3 Zrotation Xrotation Yrotation
            JOINT RightToeBase
            {
              OFFSET 0 15.852 0
              CHANNELS 3 Zrotation Xrotation Yrotation
              End Site
              {
                OFFSET 0.00671906 7.67701 -0.884893
              }
            }
          }
        }
      }
    }
  }
  JOINT LeftUpLeg
  {
    OFFSET 6.91416 -1.26788 -1.06358
    CHANNELS 3 Zrotation Xrotation Yrotation
    JOINT LeftUpLegRoll
    {
      OFFSET 0 18.3379 0
      CHANNELS 3 Zrotation Xrotation Yrotation
      JOINT LeftLeg
      {
        OFFSET 0 22.7084 0
        CHANNELS 3 Zrotation Xrotation Yrotation
        JOINT LeftLegRoll
        {
          OFFSET 0 22.9934 0
          CHANNELS 3 Zrotation Xrotation Yrotation
          JOINT LeftFoot
          {
            OFFSET 0 18.7522 0
            CHANNELS 3 Zrotation Xrotation Yrotation
            JOINT LeftToeBase
            {
              OFFSET 0 15.852 0
              CHANNELS 3 Zrotation Xrotation Yrotation
              End Site
              {
                OFFSET -0.030112 7.67701 -0.884893
              }
            }
          }
        }
      }
    }
  }
}
MOTION
Frames: 12
Frame Time: 0.00208333
58.7826 92.175 4.84026 0.314075 -6.95146 -3.61043 -0.1981 -0.0425553 -0.0455786 -0.39629 3.91127 -0.0561569 -0.396199 5.55633 -0.0495525 -10.3263 14.1854 0.709508 15.1113 -13.2503 1.11696 71.7739 -4.79531 -3.78776 100.41 4.97432 24.3556 -3.88112e-007 -5.23716e-007 7.9653e-006 5.16293 18.6192 -2.2573 4.72617e-006 4.75519e-006 -3 8.02961 -4.95149 0.697683 -69.4792 -2.00569 2.26569 -99.9641 -5.27472 -17.4097 5.53581e-006 1.09117e-006 -4.03679e-006 -6.01232 19.5424 2.36029 2.02415e-005 6.15166e-006 3.00002 -8.0295 -4.95152 -0.697688 176.258 15.2122 -3.05976 180 7.01629e-015 179.371 -177.727 8.51826 179.231 -1.49267e-006 -2.57806e-006 0.473664 -13.6426 68.1767 19.6222 8.13649 25.2327 -3.48774 174.007 0.163112 8.09807 4.54188e-006 -4.6773e-006 -2.27572 -7.17132 -21.961 -1.4023 -5.19365e-006 -6.37156e-006 -0.468142 41.5155 76.6642 -35.075 -8.13702 25.2405 3.48614 
58.8021 92.1795 4.84651 0.316567 -6.96508 -3.60382 -0.198699 -0.0412209 -0.0456326 -0.39711 3.91324 -0.0575477 -0.396997 5.55829 -0.0509281 -10.3204 14.2328 0.717326 15.0909 -13.2613 1.11978 71.7544 -4.78923 -3.78373 100.49 5.03847 24.0312 -3.88112e-007 -5.23716e-007 7.9653e-006 5.32569 18.8272 -2.30097 4.72617e-006 4.75519e-006 -3 8.02961 -4.95149 0.697683 -69.4958 -1.97997 2.25453 -99.9941 -5.13513 -17.2229 5.53581e-006 1.09117e-006 -4.03679e-006 -6.08305 19.6903 2.38811 2.02415e-005 6.15166e-006 3.00002 -8.0295 -4.95152 -0.697688 176.249 15.2003 -3.04633 180 7.01629e-015 179.371 -177.738 8.51216 179.233 -1.49267e-006 -2.57806e-006 0.471795 -13.6532 68.1698 19.6179 8.13649 25.2327 -3.48774 174.01 0.163224 8.08721 4.54188e-006 -4.6773e-006 -2.27575 -7.18491 -21.9698 -1.40655 -5.19365e-006 -6.37156e-006 -0.466151 41.5038 76.6612 -35.0668 -8.13702 25.2405 3.48614 
58.8029 92.1771 4.83327 0.319068 -6.97875 -3.59712 -0.199322 -0.0398372 -0.0456813 -0.397975 3.91523 -0.0590123 -0.397839 5.56029 -0.0523765 -10.3144 14.2802 0.725087 15.0701 -13.2721 1.12251 71.7354 -4.78311 -3.7797 100.57 5.10437 23.7067 -3.88112e-007 -5.23716e-007 7.9653e-006 5.48945 19.0335 -2.34458 4.72617e-006 4.75519e-006 -3 8.02961 -4.95149 0.697683 -69.5123 -1.95414 2.24331 -100.026 -4.99514 -17.037 5.53581e-006 1.09117e-006 -4.03679e-006 -6.15397 19.8372 2.4158 2.02415e-005 6.15166e-006 3.00002 -8.0295 -4.95152 -0.697688 176.24 15.1882 -3.03245 180 7.01629e-015 179.37 -177.75 8.50591 179.235 -1.49267e-006 -2.57806e-006 0.469946 -13.6636 68.1628 19.6136 8.13649 25.2327 -3.48774 174.012 0.163439 8.07619 4.54188e-006 -4.6773e-006 -2.27579 -7.1987 -21.9786 -1.41088 -5.19365e-006 -6.37156e-006 -0.464133 41.4921 76.6582 -35.0586 -8.13702 25.2405 3.48614 
58.8087 92.179 4.82865 0.321575 -6.99248 -3.59037 -0.199961 -0.0384191 -0.0457263 -0.398871 3.91725 -0.0605285 -0.398712 5.5623 -0.0538759 -10.3083 14.3276 0.732807 15.0491 -13.2827 1.12516 71.7168 -4.77695 -3.77568 100.652 5.17154 23.3821 -3.88112e-007 -5.23716e-007 7.9653e-006 5.654 19.2386 -2.38817 4.72617e-006 4.75519e-006 -3 8.02961 -4.95149 0.697683 -69.5288 -1.92824 2.23205 -100.059 -4.85476 -16.8516 5.53581e-006 1.09117e-006 -4.03679e-006 -6.22509 19.9835 2.44341 2.02415e-005 6.15166e-006 3.00002 -8.0295 -4.95152 -0.697688 176.231 15.176 -3.01826 180 7.01628e-015 179.37 -177.763 8.49955 179.237 -1.49267e-006 -2.57806e-006 0.468111 -13.6741 68.156 19.6094 8.13649 25.2327 -3.48774 174.015 0.163727 8.06505 4.54188e-006 -4.6773e-006 -2.27584 -7.21262 -21.9876 -1.41527 -5.19365e-006 -6.37156e-006 -0.462094 41.4803 76.6552 -35.0505 -8.13702 25.2405 3.48614 
58.8158 92.1827 4.82108 0.324087 -7.00623 -3.58358 -0.20061 -0.0369812 -0.0457692 -0.399785 3.91927 -0.0620741 -0.399602 5.56433 -0.0554045 -10.3021 14.375 0.740507 15.028 -13.2932 1.12778 71.6983 -4.77076 -3.77166 100.735 5.23948 23.0575 -3.88112e-007 -5.23716e-007 7.9653e-006 5.81916 19.443 -2.43181 4.72617e-006 4.75519e-006 -3 8.02961 -4.95149 0.697683 -69.5452 -1.90229 2.22076 -100.094 -4.71403 -16.6666 5.53581e-006 1.09117e-006 -4.03679e-006 -6.29637 20.1295 2.47101 2.02415e-005 6.15166e-006 3.00002 -8.0295 -4.95152 -0.697688 176.222 15.1636 -3.00388 180 7.01628e-015 179.369 -177.776 8.49314 179.239 -1.49267e-006 -2.57806e-006 0.466284 -13.6845 68.1491 19.6052 8.13649 25.2327 -3.48774 174.018 0.164056 8.05384 4.54188e-006 -4.6773e-006 -2.27589 -7.22662 -21.9966 -1.41969 -5.19365e-006 -6.37156e-006 -0.460045 41.4685 76.6522 -35.0424 -8.13702 25.2405 3.48614 
58.8161 92.1793 4.80658 0.326604 -7.01999 -3.57677 -0.201261 -0.0355385 -0.0458116 -0.400703 3.92131 -0.0636271 -0.400496 5.56636 -0.0569404 -10.2959 14.4223 0.748205 15.0069 -13.3036 1.13038 71.6799 -4.76458 -3.76765 100.818 5.30768 22.7328 -3.88112e-007 -5.23716e-007 7.9653e-006 5.98471 19.6472 -2.47557 4.72617e-006 4.75519e-006 -3 8.02961 -4.95149 0.697683 -69.5617 -1.87634 2.20947 -100.129 -4.57297 -16.4818 5.53581e-006 1.09117e-006 -4.03679e-006 -6.36781 20.2753 2.49866 2.02415e-005 6.15166e-006 3.00002 -8.0295 -4.95152 -0.697688 176.213 15.1512 -2.98946 180 7.01628e-015 179.369 -177.789 8.48671 179.241 -1.49267e-006 -2.57806e-006 0.464459 -13.695 68.1423 19.6011 8.13649 25.2327 -3.48774 174.021 0.164396 8.04262 4.54188e-006 -4.6773e-006 -2.27595 -7.24064 -22.0056 -1.42413 -5.19365e-006 -6.37156e-006 -0.457993 41.4568 76.6491 -35.0344 -8.13702 25.2405 3.48614 
58.8232 92.1808 4.79994 0.329122 -7.03373 -3.56999 -0.201908 -0.0341056 -0.045855 -0.401612 3.92333 -0.0651654 -0.401381 5.56839 -0.0584617 -10.2898 14.4697 0.755918 14.9858 -13.3142 1.13301 71.6613 -4.7584 -3.76363 100.902 5.37564 22.4082 -3.88112e-007 -5.23716e-007 7.9653e-006 6.15046 19.8517 -2.51952 4.72617e-006 4.75519e-006 -3 8.02961 -4.95149 0.697683 -69.5781 -1.8504 2.19819 -100.166 -4.4316 -16.2971 5.53581e-006 1.09117e-006 -4.03679e-006 -6.43939 20.4213 2.52641 2.02415e-005 6.15166e-006 3.00002 -8.0295 -4.95152 -0.697688 176.204 15.1389 -2.97514 180 7.01628e-015 179.368 -177.802 8.48032 179.243 -1.49267e-006 -2.57806e-006 0.46263 -13.7054 68.1354 19.5969 8.13649 25.2327 -3.48774 174.024 0.164715 8.03143 4.54188e-006 -4.6773e-006 -2.27601 -7.25462 -22.0145 -1.42855 -5.19365e-006 -6.37156e-006 -0.455947 41.445 76.6461 -35.0263 -8.13702 25.2405 3.48614 
58.8204 92.1785 4.79141 0.331641 -7.04745 -3.56325 -0.202542 -0.0326973 -0.0459011 -0.402499 3.92534 -0.0666669 -0.402244 5.5704 -0.0599466 -10.2837 14.5171 0.763667 14.9649 -13.3248 1.13569 71.6426 -4.75225 -3.75961 100.987 5.44285 22.0834 -3.88112e-007 -5.23716e-007 7.9653e-006 6.31622 20.057 -2.56373 4.72617e-006 4.75519e-006 -3 8.02961 -4.95149 0.697683 -69.5945 -1.82452 2.18695 -100.202 -4.28995 -16.1123 5.53581e-006 1.09117e-006 -4.03679e-006 -6.5111 20.5678 2.55434 2.02415e-005 6.15166e-006 3.00002 -8.0295 -4.95152 -0.697688 176.194 15.1266 -2.96104 180 7.01628e-015 179.368 -177.814 8.47399 179.246 -1.49267e-006 -2.57806e-006 0.460791 -13.7159 68.1285 19.5927 8.13649 25.2327 -3.48774 174.027 0.164983 8.02032 4.54188e-006 -4.6773e-006 -2.27606 -7.26851 -22.0234 -1.43292 -5.19365e-006 -6.37156e-006 -0.453914 41.4332 76.6431 -35.0182 -8.13702 25.2405 3.48614 
58.8262 92.1788 4.78251 0.33416 -7.0611 -3.55658 -0.203158 -0.0313284 -0.0459514 -0.40335 3.92733 -0.0681094 -0.403073 5.57238 -0.0613732 -10.2778 14.5645 0.771468 14.9442 -13.3356 1.13844 71.6234 -4.74614 -3.75558 101.071 5.50879 21.7587 -3.88112e-007 -5.23716e-007 7.9653e-006 6.48179 20.2637 -2.60826 4.72617e-006 4.75519e-006 -3 8.02961 -4.95149 0.697683 -69.611 -1.79872 2.17575 -100.24 -4.14803 -15.9272 5.53581e-006 1.09117e-006 -4.03679e-006 -6.58292 20.715 2.5825 2.02415e-005 6.15166e-006 3.00002 -8.0295 -4.95152 -0.697688 176.186 15.1146 -2.9473 180 7.01628e-015 179.367 -177.826 8.46779 179.248 -1.49267e-006 -2.57806e-006 0.458936 -13.7264 68.1216 19.5885 8.13649 25.2327 -3.48774 174.03 0.165167 8.00935 4.54188e-006 -4.6773e-006 -2.27609 -7.28224 -22.0323 -1.43723 -5.19365e-006 -6.37156e-006 -0.451904 41.4215 76.6401 -35.01 -8.13702 25.2405 3.48614 
58.8324 92.1793 4.77291 0.336675 -7.07469 -3.55 -0.203748 -0.0300136 -0.0460075 -0.404151 3.92928 -0.0694708 -0.403853 5.57433 -0.0627197 -10.2721 14.6119 0.779341 14.9239 -13.3468 1.14131 71.6037 -4.74008 -3.75154 101.156 5.57293 21.434 -3.88112e-007 -5.23716e-007 7.9653e-006 6.64699 20.4722 -2.65318 4.72617e-006 4.75519e-006 -3 8.02961 -4.95149 0.697683 -69.6276 -1.77303 2.16463 -100.277 -4.00588 -15.7417 5.53581e-006 1.09117e-006 -4.03679e-006 -6.65485 20.8631 2.61096 2.02415e-005 6.15166e-006 3.00002 -8.0295 -4.95152 -0.697688 176.177 15.1028 -2.93407 180 7.01628e-015 179.367 -177.838 8.46175 179.249 -1.49267e-006 -2.57806e-006 0.457059 -13.7369 68.1146 19.5841 8.13649 25.2327 -3.48774 174.033 0.165237 7.99856 4.54188e-006 -4.6773e-006 -2.27611 -7.29576 -22.0409 -1.44145 -5.19365e-006 -6.37156e-006 -0.449924 41.4099 76.6371 -35.0018 -8.13702 25.2405 3.48614 
58.8355 92.1709 4.7644 0.339186 -7.08819 -3.54354 -0.204304 -0.0287678 -0.046071 -0.40489 3.93119 -0.070729 -0.404572 5.57624 -0.0639643 -10.2667 14.6594 0.787305 14.9041 -13.3583 1.14431 71.5833 -4.7341 -3.74749 101.24 5.63475 21.1093 -3.88112e-007 -5.23716e-007 7.9653e-006 6.81162 20.6831 -2.69857 4.72617e-006 4.75519e-006 -3 8.02961 -4.95149 0.697683 -69.6442 -1.7475 2.15359 -100.314 -3.8635 -15.5556 5.53581e-006 1.09117e-006 -4.03679e-006 -6.72688 21.0126 2.63979 2.02415e-005 6.15166e-006 3.00002 -8.0295 -4.95152 -0.697688 176.168 15.0912 -2.92147 180 7.01628e-015 179.366 -177.848 8.45592 179.251 -1.49267e-006 -2.57806e-006 0.455154 -13.7475 68.1075 19.5797 8.13649 25.2327 -3.48774 174.035 0.165163 7.98801 4.54188e-006 -4.6773e-006 -2.27612 -7.30902 -22.0495 -1.44554 -5.19365e-006 -6.37156e-006 -0.447983 41.3984 76.6343 -34.9935 -8.13702 25.2405 3.48614 
58.8415 92.169 4.75441 0.341692 -7.10157 -3.53723 -0.204821 -0.0276057 -0.0461435 -0.405552 3.93304 -0.0718618 -0.405217 5.57809 -0.065085 -10.2616 14.7069 0.795377 14.8849 -13.3702 1.14749 71.562 -4.7282 -3.74342 101.323 5.69373 20.7846 -3.88112e-007 -5.23716e-007 7.9653e-006 6.97551 20.8969 -2.7445 4.72617e-006 4.75519e-006 -3 8.02961 -4.95149 0.697683 -69.6609 -1.72214 2.14265 -100.35 -3.72093 -15.3686 5.53581e-006 1.09117e-006 -4.03679e-006 -6.799 21.1637 2.66904 2.02415e-005 6.15166e-006 3.00002 -8.0295 -4.95152 -0.697688 176.16 15.0801 -2.90963 180 7.01628e-015 179.365 -177.858 8.45033 179.253 -1.49267e-006 -2.57806e-006 0.453214 -13.7581 68.1003 19.5752 8.13649 25.2327 -3.48774 174.038 0.164912 7.97775 4.54188e-006 -4.6773e-006 -2.2761 -7.32194 -22.0578 -1.4495 -5.19365e-006 -6.37156e-006 -0.446089 41.387 76.6315 -34.985 -8.13702 25.2405 3.48614 
